,
Brought to you by  http://www.scenetime.com/signup.php
 
 Hottest scene tracker on the net !!!   
 
No fake torrents from scenebalance 
shame on those who comment fake before downloading my torrents

    seed back for speed


 



...................................NFO:.................................................                                                       
       .           `                           .       
       +            #                          :       
       @  `@@@@@@#@:.     : .       ;@@#       @       
       @ .@@@@@@@@@@@@@@@,  :     .@@@@@@`     @     , 
   .   @ @@@@@@@@@@@@@:     :    '@@@@@@@@     @    ;  
   `  .@`@@#.` @@@:. @@     .   `@@@@@'@@@     @    `  
   `' ,@ @@@  `@@#   @@:   +.   @@@@@   @@@ + `@   @   
    @ '@ @@'  :@@@  `@@@   @:  ,@@@@     @@ @ ,@  +#   
    @.'@ +@   #@@'  '@@@   @@  ,@@@+      @ @:,@ .@`   
    +@,@ @#   @@@@  '@@@. :@@  @@@@:      , '@`@ @@    
  @` @,@+@   `@@@#  #@@@@ @@@  @@@@`      @, @.@'@   ` 
   @@`@@@ '@',@@@:  @@@@, @@@.`@@@@        @@ @@@`,@#  
    ,@':.@#  ,@@@@  @@@@: @@@.+@@@#         .@;',@#    
     :@#:    @@@@#  '@@@@@@@@' @@@@          :@#;      
       . :.  ;@@@' '@@@@@@@@@+ @@@#            : :,    
       :     .@@@@  +@@@@@@@@@ @@@@            '       
             #@@@#  '@@@.:@@@@ @@@@  Brings You Another Homegrown Encode       
              @@@'  #@@@  '@@@ :@@@                    
              @@@@  :@@.  `@@@  #@@`     +             
              @@@@   @@    #@@  ,@@+    ,              
              :@@@   @;    .@@   ,@@   '`              
              `@@@   @      +@    #@@@@                
                @@   ;       @      :`                 
                :@            +                          |                
                 @;                                     |.|               
                  @        :                            |.|               
                  `@     ` :`                          |\./|              
                     ,   ..                            |\./|
                   .    ;` ..`         .               |\./|               .
                    .  ,:` '+:`         \^.\          |\\.//|          /.^/
                     ,`  ,:;'';,;  .`    \--.|\       |\\.//|       /|.--/
 `..,.`                    `,;..:: .`      \--.| \    |\\.//|    / |.--/
 `'':,,.`                    +:, ;.,        \---.|\    |\./|    /|.---/
 `;#+'::,.`                 :':#.;, `          \--.|\  |\./|  /|.--/
  `;##+;::.``              ,;;.'#  :`             \ .\  |.|  /. /
   .'##+;;:,.`           `.#+'++        _ -_^_^_^_-  \ \\ // /  -_^_^_^_- _
    `'##+'::;..`         +@#'';`          - -/_/_/- ^_^/| |\^_^ -\_\_\- -
     `;##+';;::.`        ,#@;;.                     /_ / | \ _\
      `;##+';;;:,.`       ,@,                            |
       `;##+'';:;;.`      ,#                           
        `;###+';::;:.`    .#                           
         `;###+'';::;,.`  `+.                          
          `:+##+''';;;;,.``;'               
           `;####'+';;;::,..#                      *THC*        
            .'####+'';;;'',.+                                   
             .'####++''+###++,               THE HOMEGROWN CREW 
              .'####+'+##@@@@#`                                               
               .'#######@@@@@@+`                  PRESENTS                    
                `;######@@@@##+.                        
                 `:###@@@@@@##+#`                Cougar Inc.                
                  `:+#@@@@@#+''+`           
                    :#@@@@#+''+#`                      
                     ;#@@@###'#'                       
                      :+#@####+,                       
                       .;++++;.                                           
                         ``           
       

       
       Sample Included
       
   
General 
Complete name : Cougar Inc 2011 DVDRip x264 AC3-THC.mkv 
Format : Matroska 
File size : 1.40 GiB 
Duration : 1h 22mn 
Overall bit rate : 2 450 Kbps 
Encoded date : UTC 2011-05-09 12:19:34 

Video 
ID : 1 
Format : AVC 
Format/Info : Advanced Video Codec 
Format profile : High@L4.1 
Format settings, CABAC : Yes 
Format settings, ReFrames : 3 frames 
Codec ID : V_MPEG4/ISO/AVC 
Duration : 1h 22mn 
Bit rate : 1 994 Kbps 
Width : 720 pixels 
Height : 304 pixels 
Display aspect ratio : 2.35:1 
Frame rate : 23.976 fps 
Color space : YUV 
Chroma subsampling : 4:2:0 
Bit depth : 8 bits 
Scan type : Progressive 
Bits/(Pixel*Frame) : 0.380 
Stream size : 1.12 GiB (80%) 
Writing library : x264 core 115 r1947 b5a8ad7 

Encoding settings : cabac=1 / ref=4 / deblock=1:0:0 / analyse=0x3:0x133
 / me=umh / subme=9 / psy=1 / psy_rd=1.00:0.25 / mixed_ref=1
 / me_range=48 / chroma_me=1 / trellis=2 / 8x8dct=1 / cqm=0
 / deadzone=21,11 / fast_pskip=0 / chroma_qp_offset=-4 / threads=9
 / sliced_threads=0 / nr=0 / decimate=0 / interlaced=0 / bluray_compat=0
 / constrained_intra=0 / bframes=3 / b_pyramid=1 / b_adapt=2 / b_bias=0
 / direct=3 / weightb=1 / open_gop=0 / weightp=2 / keyint=250
 / keyint_min=23 / scenecut=40 / intra_refresh=0 / rc_lookahead=40
 / rc=2pass / mbtree=1 / bitrate=1994 / ratetol=1.0 / qcomp=0.60
 / qpmin=0 / qpmax=69 / qpstep=4 / cplxblur=20.0 / qblur=0.5
 / vbv_maxrate=50000 / vbv_bufsize=50000 / nal_hrd=none / ip_ratio=1.40
 / aq=1:1.00 

Audio 
ID : 2 
Format : AC-3 
Format/Info : Audio Coding 3 
Mode extension : CM (complete main) 
Codec ID : A_AC3 
Duration : 1h 22mn 
Bit rate mode : Constant 
Bit rate : 448 Kbps 
Channel(s) : 6 channels 
Channel positions : Front: L C R, Side: L R, LFE 
Sampling rate : 48.0 KHz 
Bit depth : 16 bits 
Compression mode : Lossy 
Stream size : 263 MiB (18%) 
Language : English 

Text #1 
ID : 3 
Format : VobSub 
Muxing mode : zlib 
Codec ID : S_VOBSUB 
Codec ID/Info : The same subtitle format used on DVDs 
Language : English 

Text #2 
ID : 4 
Format : VobSub 
Muxing mode : zlib 
Codec ID : S_VOBSUB 
Codec ID/Info : The same subtitle format used on DVDs 
Language : Spanish 


              Imdb-Rating..........: 5.1/10
              Imdb.................: http://www.imdb.com/title/tt1198075/
              Video-Source.........: GRiLL....Thanks!
              Audio-Source.........: GRiLL....Thanks!
              Encoder..............: Freebee269
              Plot.................: Sam has been kicked out of every
 school across the country. When he learns that his mother can no longer
 afford to keep him in school he and his friends start their own escort
 service, Cougars, Inc., to help pay for his tuition. Through this
 hilarious new job Sam and his friends explore the generation of Cougars
 who are desperately trying to stay young and loving every lesson they
 are taught.
   
       
       Enjoy: Seed and Blaze
       

       
       *THC* Toking Down The Competition One Puff At A Time
       

       
       Greets: Those Who Respect Us!
       
 
          .=     =.                                  .-'~~~-.
         (_________)        Respects                       .'o  oOOOo`.
     __      | |                   :~~~-.oOo   o`,
   .=  =.    | |      SANTi, TOXiCiNK, LKRG  . . .        `. \ ~-.  oOOo;
  (______)  / /      NPW, FLAWL3SS, BDK, CM8  \W/           `.; / ~.  OO:
     ||    / /         IMAGiNE, ViSiON, Rx   _ Y _          .'yum-- `.o.'
     ||   / / _        \|/          ,'  ; ~~--'~
   _ ||  | | (_)          ,                     ~~~   .^.    ;  ;
  (_) \\@@@|  |         .;       _..--,                    \\;_\\//
   \\.@@@@@@@@@@.      ;':      '  ',,,\    .^.                      .^.
   .@@@@@@@@@@@@@.     ;_;             '|_          ,'
  .@@@@@@@@@@@@@@@.    |              .;;;;.,     ,':     .^.      '.   .^.
                   ,;::;:::..      ..;;*THC*;;.. :_,'             .;'
    .^.          .'     '':::;._.;;::::''''':;::;/'             .;:;
                .          ':::::::;;'      ':::::          ...;:
  .^.                         ':::'          /':::;      ..:::::;:.
          .^.          .^.       ;         ,'; ':::;;...;::;;;;' ';;.
                            ,,,_/          ; ;   ';;:;::::'          '.
   .^.                   ..'  ,'           ;'         ''\             '
         .^.            '  '''     .^.    '              ;'.    .^.
                                                         : :        .^.
  .^.           .^.                                    .-''
                                        .^.                 .^.
               .^.              .^.             .^.              .^.
       .^.            .^.                              .^.             .^.